<?xml version="1.0" encoding="UTF-8"?>
<!-- Created with Grafika (https://www.grafika.cc/) -->
<svg xmlns="http://www.w3.org/2000/svg" xmlns:svg="http://www.w3.org/2000/svg" xmlns:xlink="http://www.w3.org/1999/xlink" width="2048" height="659.25" viewBox="0 0 3283.7 1057.17" preserveAspectRatio="xMidYMid meet">
	<g transform="matrix(1, 0, 0, 1, 1352.822998046875, 502.27813720703125)">
		<rect transform="matrix(6.646751880645752, 0, -1.0440694093704224, 6.646751880645752, 689.6673583984375, -59.66851806640625)" x="-153.76" y="-39.05" width="307.52" height="78.11" style="fill:#A6A6A6;" />
		<rect transform="matrix(6.646751880645752, 0, -0.00000003639300416580227, 6.646751880645752, -220.57308959960938, 26.30841064453125)" x="-130.81" y="-51.99" width="261.62" height="103.98" style="fill:#A6A6A6;" />
		<rect transform="matrix(6.646751880645752, 0, -1.0440694093704224, 6.646751880645752, 1534.8927001953125, 112.28533935546875)" x="-53.44" y="-39.05" width="106.88" height="78.11" style="fill:#F5060B;" />
		<rect transform="matrix(6.646751880645752, 0, -4.060269832611084, 6.646751880645752, 1356.4617919921875, 112.28533935546875)" x="-53.44" y="-39.05" width="106.88" height="78.11" style="fill:#F5060B;" />
		<rect transform="matrix(6.646751880645752, 0, -0.00000003639300416580227, 6.646751880645752, 257.67779541015625, 242.0792236328125)" x="-116.81" y="-19.53" width="233.62" height="39.05" style="fill:#F5060B;" />
		<rect transform="matrix(7.907696723937988, 2.664033889770508, -2.664033889770508, 7.907696723937988, -824.2364501953125, 26.30841064453125)" x="-50" y="-50" width="100" height="100" rx="10.55" ry="10.55" style="fill:#0215D7;" />
		<path transform="matrix(2.7725563049316406, 0, 0, 2.7725563049316406, 341.8876037597656, -59.66851806640625)" d="M-239.57,40.5 L-239.57,-23.44 L-206.32,-23.44 Q-200.86,-23.44 -196.29,-20.83 Q-191.72,-18.24 -188.97,-13.76 Q-186.23,-9.28 -186.23,-3.81 Q-186.23,1.85 -189.15,6.47 Q-192.07,11.09 -196.89,13.83 Q-201.68,16.57 -207.53,16.57 L-229.72,16.57 L-229.72,40.5 L-239.57,40.5 ZM-229.72,7.07 L-208.15,7.07 Q-205.05,7.07 -202.42,5.58 Q-199.77,4.06 -198.21,1.61 Q-196.64,-0.87 -196.64,-3.81 Q-196.64,-6.64 -198.21,-8.92 Q-199.77,-11.19 -202.42,-12.55 Q-205.05,-13.94 -208.15,-13.94 L-229.72,-13.94 L-229.72,7.07 ZM-162.21,40.5 L-162.21,-7.45 L-152.71,-7.45 L-152.71,9.17 L-154.81,7.43 Q-153.54,3.06 -150.48,-0.56 Q-147.41,-4.17 -143.44,-6.31 Q-139.47,-8.45 -135.18,-8.45 Q-132.44,-8.45 -129.92,-7.89 Q-127.4,-7.36 -125.86,-6.35 L-128.32,3.5 Q-130.06,2.59 -132.44,2.05 Q-134.81,1.5 -136.9,1.5 Q-140.38,1.5 -143.3,2.7 Q-146.22,3.88 -148.34,5.93 Q-150.44,7.99 -151.58,10.55 Q-152.71,13.09 -152.71,15.75 L-152.71,40.5 L-162.21,40.5 ZM-82.38,41.41 Q-90.88,41.41 -97.46,38.23 Q-104.04,35.01 -107.78,29.35 Q-111.53,23.69 -111.53,16.48 Q-111.53,9.17 -107.78,3.55 Q-104.04,-2.07 -97.46,-5.26 Q-90.88,-8.45 -82.38,-8.45 Q-73.97,-8.45 -67.4,-5.26 Q-60.82,-2.07 -57.07,3.55 Q-53.32,9.17 -53.32,16.48 Q-53.32,23.69 -57.07,29.35 Q-60.82,35.01 -67.4,38.23 Q-73.97,41.41 -82.38,41.41 ZM-82.38,32.83 Q-76.9,32.83 -72.44,30.73 Q-67.95,28.64 -65.34,24.93 Q-62.73,21.23 -62.94,16.48 Q-62.73,11.64 -65.34,7.99 Q-67.95,4.33 -72.44,2.23 Q-76.9,0.14 -82.38,0.14 Q-87.96,0.14 -92.44,2.23 Q-96.9,4.33 -99.46,8.03 Q-102.03,11.73 -101.94,16.48 Q-102.03,21.23 -99.46,24.93 Q-96.9,28.64 -92.44,30.73 Q-87.96,32.83 -82.38,32.83 ZM-36.62,58.5 L-40.17,50.56 Q-34.97,50.56 -31.6,48.39 Q-28.21,46.25 -26.56,42.33 Q-24.91,38.4 -24.91,32.83 L-24.91,-7.45 L-15.52,-7.45 L-15.52,35.1 Q-15.52,42.24 -18.27,47.48 Q-20.99,52.74 -25.74,55.62 Q-30.49,58.5 -36.62,58.5 ZM-19.98,-18.6 Q-23,-18.6 -24.65,-20.14 Q-26.3,-21.7 -26.3,-24.53 Q-26.3,-27.18 -24.6,-28.83 Q-22.91,-30.48 -19.98,-30.48 Q-16.97,-30.48 -15.35,-28.92 Q-13.7,-27.36 -13.7,-24.53 Q-13.7,-21.9 -15.39,-20.25 Q-17.06,-18.6 -19.98,-18.6 ZM37.8,41.41 Q29.12,41.41 22.32,38.27 Q15.52,35.1 11.68,29.59 Q7.85,24.06 7.85,17.02 Q7.85,11.09 10.12,6.42 Q12.42,1.76 16.39,-1.56 Q20.36,-4.9 25.69,-6.73 Q31.04,-8.56 36.97,-8.56 Q42.55,-8.56 47.39,-6.82 Q52.23,-5.08 55.88,-1.96 Q59.54,1.14 61.55,5.4 Q63.55,9.64 63.47,14.74 L63.38,19.31 L15.96,19.31 L13.87,11.82 L55.26,11.82 L53.88,12.82 L53.88,10.64 Q53.43,7.52 50.95,5.15 Q48.48,2.77 44.82,1.45 Q41.19,0.14 36.97,0.14 Q31.22,0.14 26.74,1.83 Q22.28,3.5 19.71,7.07 Q17.17,10.64 17.17,16.39 Q17.17,21.32 19.98,25.02 Q22.81,28.73 27.78,30.73 Q32.78,32.74 39.36,32.74 Q45.38,32.74 49.57,31.04 Q53.79,29.35 56.98,27.16 L61.28,34.1 Q58.72,36.11 54.92,37.76 Q51.13,39.41 46.74,40.41 Q42.37,41.41 37.8,41.41 ZM108.79,41.41 Q101.03,41.41 94.85,38.14 Q88.7,34.84 85.08,29.17 Q81.47,23.51 81.47,16.48 Q81.47,9.35 85.08,3.73 Q88.7,-1.89 94.85,-5.17 Q101.03,-8.45 108.79,-8.45 Q116.46,-8.45 123,-5.93 Q129.53,-3.43 133.19,0.94 L127.88,8.16 Q125.78,5.89 122.62,4.06 Q119.47,2.23 115.99,1.14 Q112.54,0.02 109.15,0.02 Q103.86,0.02 99.74,2.19 Q95.63,4.33 93.29,8.03 Q90.97,11.73 90.97,16.48 Q90.97,21.23 93.45,24.93 Q95.92,28.64 100.07,30.78 Q104.22,32.92 109.26,32.92 Q113.27,32.92 116.64,31.96 Q120.03,31 122.86,29.42 Q125.69,27.81 127.97,25.98 L133.19,33.01 Q128.79,36.49 122.62,38.96 Q116.46,41.41 108.79,41.41 ZM163.18,40.5 L163.18,-21.43 L172.59,-21.43 L172.59,40.5 L163.18,40.5 ZM149.76,1.67 L149.76,-7.45 L188.47,-7.45 L188.47,1.67 L149.76,1.67 ZM222.84,36.02 L222.84,-15.85 L226.3,-14.85 L211.78,-7 L208.59,-15.23 L225.29,-24.35 L232.79,-24.35 L232.79,36.02 L222.84,36.02 ZM210.31,40.5 L210.31,31 L243.76,31 L243.76,40.5 L210.31,40.5 Z" fill="#FFFFFF" fill-rule="evenodd" />
		<g transform="matrix(1.8703317642211914, 0.00000000597715388295228, -0.00000000597715388295228, 1.8703317642211914, -824.2364501953125, 26.308395385742188)">
			<path transform="matrix(1, 0, 0, 1, -213, -213.5)" d="" fill-rule="evenodd" style="fill:#0C0C0C;" />
			<path transform="matrix(1, 0, 0, 1, -213, -213.5)" d="M190.23,4.73 C187.88,4.94 186.21,5.54 186.53,6.05 C186.85,6.56 186.37,6.69 185.46,6.35 C181.85,4.96 156.98,10.76 141,16.72 C129.92,20.85 116.9,27.03 117.44,27.9 C117.64,28.23 116.84,28.56 115.65,28.63 C112.79,28.8 95.62,39.58 85.03,47.85 C73.98,56.47 62.87,66.98 63.58,68.14 C63.9,68.64 63.7,68.93 63.15,68.78 C61.13,68.22 39.1,94.93 39.75,97.14 C39.89,97.62 39.6,98 39.12,98 C36.86,98 17.94,134.51 17.64,139.42 C17.56,140.73 17.23,141.64 16.9,141.44 C16.17,140.99 9.82,161.36 9.53,165.06 C9.41,166.5 9.07,168.08 8.76,168.59 C8.45,169.09 7.37,174.23 6.36,180 C4.37,191.41 3.75,226.91 5.3,240.5 C6.91,254.56 12.71,278.3 14.3,277.32 C14.88,276.96 15,277.19 14.59,277.85 C12.69,280.94 31.68,322.93 34.26,321.34 C34.87,320.97 35.01,321.17 34.61,321.82 C33.92,322.95 41.05,334.33 47.89,343 C68.14,368.69 92.63,388.43 122.34,403 C135.61,409.52 154.89,416.68 160.92,417.34 C162.39,417.5 164.04,417.91 164.58,418.24 C165.54,418.84 180.95,421.76 184,421.93 C184.83,421.97 189.55,422.5 194.5,423.1 C205.83,424.47 235.27,423.59 248,421.51 C262.91,419.06 289,411.63 289,409.82 C289,409.31 289.4,409.13 289.89,409.43 C291.01,410.12 298.24,407.18 299.24,405.64 C299.64,405.01 299.98,404.88 299.99,405.34 C300.01,406.5 319.33,396.16 329.29,389.66 C341.33,381.8 351.78,373.21 363.29,361.7 C372.58,352.41 385,337.42 385,335.5 C385,335.07 385.64,334.22 386.43,333.61 C387.21,333 390.44,328.23 393.61,323 C414.88,287.87 425.25,247.75 423.7,206.5 C423.14,191.43 420.39,170 419.01,170 C418.61,170 418.51,168.81 418.78,167.35 C419.13,165.54 418.93,164.92 418.16,165.4 C417.45,165.84 417.23,165.57 417.57,164.67 C418.19,163.06 415.31,152.19 413.76,150.25 C413.21,149.56 413.01,149 413.32,149 C414.12,149 410.98,140.14 406.52,129.76 C404.46,124.95 402.38,121.27 401.9,121.56 C401.42,121.86 401.25,121.52 401.52,120.8 C402.06,119.4 393.56,103.72 391.95,103.17 C391.42,102.98 391.18,102.52 391.42,102.13 C392.65,100.14 365.67,66.47 363.77,67.64 C363.16,68.02 362.98,67.85 363.36,67.23 C364.74,64.99 338.35,43.44 323,34.29 C312.27,27.89 295.95,19.71 295.28,20.39 C294.99,20.67 294.16,20.3 293.42,19.56 C292.12,18.26 270.22,10.76 267.04,10.52 C266.17,10.46 265.02,10.13 264.48,9.8 C262.64,8.66 244.95,5.78 242.97,6.3 C241.89,6.58 241.21,6.47 241.47,6.05 C241.73,5.62 239.19,4.99 235.83,4.64 C229.54,3.98 197.86,4.05 190.23,4.73M200,18.06 C186.55,19.02 182.04,19.6 173.75,21.42 C137.79,29.29 104.97,46.41 80.28,70.17 C63.34,86.46 55.16,96.61 44.45,114.63 C41.07,120.31 37.93,124.64 37.49,124.23 C37.04,123.83 36.97,124.01 37.32,124.62 C37.67,125.24 36.24,129.74 34.13,134.62 C26.6,152.05 19,179.71 19,189.71 C19,191.34 18.76,192.9 18.48,193.19 C17.48,194.19 17.27,213.54 18.11,227.08 C18.57,234.54 19.88,245.47 21.02,251.35 C22.15,257.24 22.77,262.61 22.38,263.28 C22,263.95 22.03,264.18 22.47,263.79 C22.9,263.4 25.23,268.99 27.64,276.2 C35.2,298.77 47.55,321 62.51,338.93 C69.84,347.72 82.01,359.95 90,366.57 C92.48,368.62 94.39,370.68 94.25,371.15 C94.11,371.62 94.34,371.93 94.75,371.84 C96.07,371.56 99,373.18 98.54,373.94 C98.29,374.34 98.63,374.67 99.29,374.68 C99.96,374.68 103.65,376.71 107.5,379.19 C132.75,395.43 160.2,405.19 191.14,408.93 C206.35,410.77 228.14,410.36 243,407.96 C250.43,406.76 257.4,405.66 258.5,405.52 C259.6,405.38 261.18,405 262,404.69 C262.83,404.38 269.02,402.31 275.77,400.09 C311.1,388.48 340.97,368.25 364.06,340.29 C368.7,334.67 372.84,330.05 373.25,330.04 C373.66,330.02 374,329.56 374,329.03 C374,328.5 376.19,324.7 378.87,320.6 C381.56,316.49 386,308.71 388.76,303.32 C409.04,263.54 414.41,224.48 406.52,174 C405.86,169.75 400.21,150.6 397.94,144.91 C396.76,141.93 395.7,139.05 395.58,138.5 C395.04,135.9 384.18,115.6 379.36,108.19 C376.39,103.61 374.26,99.38 374.64,98.78 C375.01,98.18 374.86,97.97 374.31,98.31 C373.76,98.65 370.51,95.37 367.08,91.03 C359.44,81.32 342.17,64.57 331.47,56.47 C323.45,50.4 311.51,43.09 302.8,38.91 C300.21,37.67 298.37,36.21 298.7,35.67 C299.04,35.13 298.86,34.97 298.32,35.31 C297.77,35.64 293.76,34.39 289.41,32.52 C263.48,21.38 229.72,15.92 200,18.06M194.31,71.48 C182.17,73.15 173.05,75.6 164.5,79.5 C156.89,82.96 146,91.24 146,93.56 C146,94.35 145.54,95 144.98,95 C143.62,95 137.92,104.06 138.59,105.15 C138.88,105.62 138.64,106 138.06,106 C137.48,106 137.08,106.34 137.19,106.75 C137.29,107.16 136.61,109.26 135.67,111.4 C134.74,113.55 134.2,115.53 134.48,115.81 C134.76,116.09 134.52,116.88 133.95,117.57 C133.38,118.25 132.82,120.84 132.71,123.31 C132.59,125.78 132.11,127.57 131.63,127.27 C131.15,126.98 130.94,128.56 131.15,130.78 C131.5,134.49 131.38,134.74 129.64,133.81 C128.55,133.22 122.87,132.96 116.13,133.19 C106.66,133.51 103.74,133.98 100.38,135.74 C94.11,139.04 90.7,142.32 87.45,148.17 C84.58,153.36 84.5,153.86 84.51,167.5 C84.52,184.66 86.56,194.33 94.98,217 C99.16,228.27 109.01,247.11 110.29,246.32 C110.87,245.96 111,246.19 110.6,246.84 C108.81,249.73 132.45,278.96 141.6,285.2 L144.99,287.5 L144.99,308.81 C145,321.3 145.38,329.89 145.91,329.56 C146.41,329.25 146.6,329.83 146.33,330.85 C146.01,332.07 146.91,333.59 148.98,335.33 L152.12,337.97 L187.14,337.9 L222.15,337.83 L228.33,343.72 C244.49,359.15 264.38,367.62 287,368.7 C311.22,369.86 331.08,363.37 350.51,347.93 C357.98,341.99 371.38,326.43 370.4,324.83 C370.11,324.38 370.27,324 370.73,324 C371.7,324 375.93,315.89 378.81,308.5 C383,297.75 384.25,288.85 383.74,273.22 C383.24,257.51 382.11,251.93 376.96,239.56 C368.47,219.17 348.5,198.95 329.74,191.76 L323.84,189.5 L324.53,179.74 C325.28,169.08 323.27,138.71 321.87,139.58 C321.41,139.87 321.29,139.41 321.61,138.56 C322.63,135.92 316.64,113.49 315.17,114.4 C314.8,114.62 314.44,113.74 314.36,112.44 C314.2,109.79 309.11,101.08 305.12,96.62 C291.64,81.56 278.16,75.16 252.5,71.63 C239.05,69.77 207.3,69.69 194.31,71.48M200.62,91.71 C200.5,91.83 195.92,92.81 190.45,93.87 C167.56,98.31 157.53,107.12 153.58,126.27 C152.71,130.47 152,136.18 152,138.94 L152,143.97 L157.25,146.63 C167.3,151.74 169.65,151.98 210.5,151.99 C246.39,152.01 248.68,152.12 251.7,153.96 C258.7,158.22 258.02,169.42 250.57,172.54 C247.72,173.73 240.51,174 211.78,173.99 C178.54,173.99 163.93,173.09 163.19,171 C163.01,170.51 162.28,170.34 161.55,170.62 C160.83,170.9 158.61,170.44 156.62,169.61 C154.63,168.78 153,168.49 153,168.96 C153,169.44 153.85,172.56 154.9,175.91 C155.94,179.26 156.6,182 156.36,182 C156.12,182 156.4,182.56 156.98,183.25 C157.56,183.94 159.41,186.45 161.08,188.83 C164.6,193.83 168.95,196.02 177.48,197.09 C182.41,197.7 183.96,198.39 186.23,200.93 C191.29,206.59 189.42,214.67 182.38,217.62 C179.66,218.75 177.62,218.81 171.76,217.93 C149.91,214.64 136.07,198.1 132.03,170.41 C129.86,155.58 129.89,155.66 126,154.81 C115.76,152.58 107.98,154.23 105.98,159.05 C104.64,162.28 104.9,177.77 106.33,179.74 C106.83,180.43 107.02,182.12 106.76,183.49 C106.49,184.87 106.67,186 107.14,186 C107.61,186 108.02,186.79 108.05,187.75 C108.07,188.71 109.77,194.57 111.83,200.77 C114.41,208.54 115.25,212.36 114.53,213.08 C113.82,213.8 113.96,213.96 115,213.59 C116.09,213.2 117.45,215.15 120,220.76 C121.93,225 125.63,232.02 128.23,236.36 C130.83,240.7 132.68,244.72 132.33,245.28 C131.98,245.85 132.14,246.03 132.69,245.69 C134.02,244.87 138.28,250.74 137.39,252.18 C136.98,252.83 137.14,253.04 137.75,252.65 C138.89,251.95 147.27,261.28 146.48,262.36 C146.21,262.71 146.28,262.8 146.61,262.56 C146.95,262.31 149.9,264.34 153.16,267.06 L159.1,272 L178.91,272 L198.72,272 L199.83,264.75 C200.45,260.76 201.19,256.04 201.48,254.25 C203.11,244.4 210.96,228.9 220.05,217.6 C230.87,204.15 239.8,197.84 261.12,188.6 C267.79,185.71 278.9,184 291.07,184 L303,184 L303,169.49 C303,139.35 297.33,118.59 286.04,107.38 C281.22,102.6 269.4,96.26 263.5,95.31 C261.55,94.99 259.74,94.38 259.48,93.96 C259.21,93.54 258.03,93.44 256.84,93.75 C255.66,94.06 254.94,93.91 255.25,93.41 C255.56,92.91 254.16,92.44 252.16,92.36 C244.21,92.04 200.84,91.5 200.62,91.71M280.06,191.09 C276.52,191.55 270.54,192.86 266.78,194 C263.01,195.14 259.43,195.77 258.81,195.38 C258.2,195 257.96,195.13 258.29,195.66 C258.62,196.2 256.33,197.89 253.2,199.42 C233.27,209.16 217.57,227.42 209.9,249.78 C206.67,259.19 206.56,260.01 206.53,275.5 C206.5,293.59 208.08,301.25 214.46,313.92 C216.36,317.68 217.63,321.04 217.29,321.38 C216.95,321.72 217.13,322 217.7,322 C218.27,322 219.86,323.69 221.23,325.76 C222.6,327.84 226.02,332.05 228.83,335.13 C231.64,338.2 233.62,341.08 233.22,341.52 C232.83,341.96 233,342.04 233.6,341.69 C235.04,340.87 241.2,345.42 240.24,346.6 C239.83,347.09 239.88,347.2 240.34,346.82 C240.81,346.45 243.51,347.6 246.34,349.38 C254.07,354.22 262.62,357.71 272.57,360.07 C280.05,361.85 283.86,362.14 296.16,361.85 C304.23,361.66 310.66,361.33 310.45,361.12 C310.24,360.91 314.23,359.33 319.32,357.62 C340.83,350.37 358.39,335.06 368.75,314.5 C370.41,311.2 372.35,306.59 373.05,304.25 C373.74,301.91 374.58,300 374.91,300 C375.23,300 375.55,298.99 375.6,297.75 C375.66,296.51 376.27,292.13 376.97,288 C380.35,268.04 373.86,242.11 361.3,225.37 C356.18,218.55 350.22,212 349.13,212 C348.64,212 347.67,211.31 346.97,210.46 C345.31,208.47 329.43,198 328.05,198 C327.47,198 327,197.48 327,196.83 C327,196.19 326.75,195.91 326.45,196.21 C326.15,196.51 322.55,195.69 318.45,194.39 C311.06,192.04 296.76,189.91 290,190.14 C288.08,190.2 283.6,190.63 280.06,191.09M273.5,199.96 C254.13,205.07 241.52,213.39 228.76,229.44 C221.04,239.16 215.65,252.93 213.78,267.67 C208.87,306.41 236.06,344.32 275.13,353.19 C285.9,355.64 316.26,353.85 314.43,350.88 C314.13,350.41 314.54,350.27 315.33,350.57 C316.12,350.88 319.67,349.81 323.21,348.2 C346.97,337.43 363,317.81 368.4,292.89 C369.95,285.77 370.11,270.28 368.75,260.83 C366.97,248.57 359.08,233.37 348.79,222.39 C343.09,216.31 329.98,207.21 322.26,203.99 C307.82,197.95 287.47,196.27 273.5,199.96M279.5,205.48 C275.65,206.19 270.07,207.7 267.1,208.85 C264.12,209.99 261.35,210.72 260.93,210.46 C260.51,210.2 260.02,210.33 259.84,210.74 C259.65,211.16 256.23,213.69 252.24,216.37 C241.6,223.49 232.75,233.53 227.48,244.46 C225.08,249.43 222.82,255.18 222.45,257.24 C222.08,259.3 221.49,260.81 221.14,260.6 C220.79,260.39 220.37,263.52 220.22,267.57 L219.94,274.93 L229.72,275.21 C239.41,275.5 239.5,275.52 239.5,278 C239.5,280.48 239.41,280.5 229.75,280.79 C218.6,281.11 219.1,280.5 221.55,291 C224.36,303.08 229.65,314.11 236.19,321.56 C237.85,323.45 238.93,325 238.59,325 C237.66,325 242.79,329.52 248.67,333.89 C258.22,340.99 271.47,346.41 282.21,347.61 L286.93,348.14 L287.21,338.32 C287.5,328.59 287.52,328.5 290,328.5 C292.48,328.5 292.5,328.59 292.79,338.25 L293.07,348 L295.79,348.12 C297.28,348.18 298.95,348.13 299.5,348.01 C300.05,347.88 303.21,347.2 306.53,346.49 C325.23,342.49 342.16,330.73 352.52,314.54 C356.99,307.55 361.64,295.22 362.59,287.85 C362.97,284.91 363.66,281.49 364.12,280.25 C364.95,278.01 364.9,278 355.1,278 C347.33,278 344.97,277.67 343.93,276.42 C342.98,275.27 342.91,274.37 343.66,273.17 C344.49,271.85 346.62,271.44 353.86,271.21 L363,270.93 L363,267.69 C363,263.13 359.42,250.77 356.34,244.66 C348.53,229.2 334.42,215.83 320,210.22 C313.28,207.61 303.11,205 299.64,205 C297.09,205 297.07,205.07 296.79,214.14 C296.56,221.38 296.15,223.51 294.83,224.34 C293.63,225.1 292.73,225.02 291.58,224.07 C290.35,223.04 290,220.71 290,213.38 C290,202.68 290.91,203.36 279.5,205.48M318.8,238.71 C314.01,240.71 310.37,242.79 310.7,243.33 C311.05,243.89 310.79,243.99 310.11,243.57 C309.08,242.93 302.5,245.4 282,254.12 C273.05,257.93 273.07,257.91 267.99,270.25 C265.34,276.71 263.41,282 263.7,282 C264,282 263.78,282.56 263.22,283.25 C261.24,285.66 253.94,304.4 254.46,305.75 C254.74,306.49 254.59,306.87 254.12,306.57 C253.64,306.28 252.49,308.05 251.55,310.51 C249.98,314.62 249.97,315.12 251.44,316.59 C252.92,318.06 253.79,317.89 262.06,314.59 C267.01,312.6 272.97,310.14 275.28,309.12 C277.6,308.1 282.65,306 286.5,304.45 C290.35,302.89 293.73,301.37 294,301.06 C294.28,300.75 295.18,300.37 296,300.22 C298.81,299.68 308.5,295.7 309.74,294.57 C310.42,293.96 314.1,285.81 317.91,276.48 C321.72,267.14 326.69,255 328.96,249.5 C331.22,244 332.94,238.6 332.79,237.5 C332.34,234.36 328.4,234.7 318.8,238.71M311.55,249.06 C304.97,251.81 298.99,253.83 298.24,253.54 C297.5,253.26 297.14,253.42 297.44,253.9 C297.74,254.39 294.37,256.24 289.95,258.02 C282.45,261.05 282.03,261.37 283.5,263 C284.71,264.34 286.12,264.63 289.52,264.24 C295.03,263.62 299.39,265.34 302.14,269.2 C303.83,271.57 304.15,273.19 303.79,277.56 C303.39,282.36 303.62,283.23 305.83,285.23 C307.2,286.48 308.03,286.99 307.67,286.37 C307.15,285.45 320.49,251.23 322.82,247.5 C323.4,246.58 324.03,243.95 323.66,244.04 C323.57,244.06 318.12,246.32 311.55,249.06M268.5,286.63 C264.1,297.41 260.37,306.58 260.21,307 C260.05,307.41 260.63,308.03 261.51,308.37 C262.39,308.7 262.89,308.63 262.63,308.21 C262.11,307.37 297.75,292.42 299.75,292.64 C301.61,292.85 301.26,289.25 299.31,288.16 C298.24,287.56 296.82,287.58 295.39,288.23 C290.8,290.32 280.1,285.8 281.43,282.33 C281.73,281.54 281.56,281.16 281.04,281.48 C279.74,282.28 278.64,275.69 279.59,272.84 C280.79,269.27 280.91,267.94 279.98,268.51 C279.52,268.8 278.86,268.58 278.51,268.02 C278.17,267.46 277.57,267.01 277.19,267.01 C276.81,267.02 272.9,275.84 268.5,286.63M289.17,269.49 C289.53,269.86 288.97,271.03 287.92,272.08 C284.04,275.96 286.71,282 292.31,282 C294.06,282 295.53,281.12 296.67,279.39 C298.19,277.06 298.22,276.48 296.94,274.21 C296.15,272.8 293.93,271.01 292,270.23 C290.08,269.45 288.8,269.11 289.17,269.49M167,304.98 L167,317 L171.25,317.05 C186.41,317.21 207.38,316.96 207.73,316.6 C207.96,316.37 207.45,314.83 206.59,313.17 C205.73,311.52 203.95,306.41 202.63,301.83 L200.22,293.5 L183.61,293.23 L167,292.95 L167,304.98" fill-rule="evenodd" style="fill:#040404;" />
		</g>
	</g>
</svg>