<?xml version="1.0" encoding="UTF-8"?>
<!-- Created with Grafika (https://www.grafika.cc/) -->
<svg xmlns="http://www.w3.org/2000/svg" xmlns:svg="http://www.w3.org/2000/svg" xmlns:xlink="http://www.w3.org/1999/xlink" width="2048" height="2048" viewBox="0 0 800 800" preserveAspectRatio="xMidYMid meet">
	<g transform="matrix(1, 0, 0, 1, 400, 400)">
		<g transform="matrix(1, 0, 0, 1, -400, -400)">
			<path d="M143.48,472.7 C113.32,471.35 86.2,453.98 72.36,427.15 C58.53,400.33 60.11,368.15 76.5,342.81 C92.89,317.46 121.59,302.83 151.73,304.44 C138.26,272.48 142.91,235.76 163.93,208.17 C184.95,180.59 219.12,166.36 253.51,170.87 C287.9,175.38 317.24,197.95 330.43,230.03 C342.79,190.63 375.29,160.86 415.61,151.99 C455.94,143.12 497.93,156.5 525.68,187.07 C553.44,217.63 562.71,260.72 550,300 C562.17,271.35 588.75,251.41 619.65,247.72 C650.56,244.04 681.08,257.17 699.65,282.15 C718.22,307.13 722.01,340.13 709.58,368.67 C733.24,397.15 739.85,436.12 726.9,470.81 C713.96,505.51 683.44,530.62 646.91,536.65 C610.37,542.68 573.4,528.7 550,500 C540.72,532.84 514.58,558.2 481.48,566.48 C448.38,574.77 413.37,564.7 389.72,540.11 C366.07,515.51 357.39,480.14 366.96,447.39 C371.67,487.41 354.61,526.89 322.24,550.89 C289.87,574.88 247.13,579.72 210.21,563.57 C173.29,547.43 147.83,512.76 143.48,472.7 L143.48,472.7 Z" style="fill:#1CC601;" />
		</g>
		<g transform="matrix(0.8518818020820618, 0, 0, 0.8518818020820618, -1.789794921875, -38.85340118408203)">
			<g transform="matrix(1, 0, 0, 1, -400, -400)">
				<path d="M143.48,472.7 C113.32,471.35 86.2,453.98 72.36,427.15 C58.53,400.33 60.11,368.15 76.5,342.81 C92.89,317.46 121.59,302.83 151.73,304.44 C138.26,272.48 142.91,235.76 163.93,208.17 C184.95,180.59 219.12,166.36 253.51,170.87 C287.9,175.38 317.24,197.95 330.43,230.03 C342.79,190.63 375.29,160.86 415.61,151.99 C455.94,143.12 497.93,156.5 525.68,187.07 C553.44,217.63 562.71,260.72 550,300 C562.17,271.35 588.75,251.41 619.65,247.72 C650.56,244.04 681.08,257.17 699.65,282.15 C718.22,307.13 722.01,340.13 709.58,368.67 C733.24,397.15 739.85,436.12 726.9,470.81 C713.96,505.51 683.44,530.62 646.91,536.65 C610.37,542.68 573.4,528.7 550,500 C540.72,532.84 514.58,558.2 481.48,566.48 C448.38,574.77 413.37,564.7 389.72,540.11 C366.07,515.51 357.39,480.14 366.96,447.39 C371.67,487.41 354.61,526.89 322.24,550.89 C289.87,574.88 247.13,579.72 210.21,563.57 C173.29,547.43 147.83,512.76 143.48,472.7 L143.48,472.7 Z" style="fill:#169601;" />
			</g>
		</g>
	</g>
</svg>