<?xml version="1.0" encoding="UTF-8"?>
<!-- Created with Grafika (https://www.grafika.cc/) -->
<svg xmlns="http://www.w3.org/2000/svg" xmlns:svg="http://www.w3.org/2000/svg" xmlns:xlink="http://www.w3.org/1999/xlink" width="2048" height="2048" viewBox="0 0 664.68 664.68" preserveAspectRatio="xMidYMid meet">
	<g transform="matrix(1, 0, 0, 1, 332.33758544921875, 464.75592041015625)">
		<ellipse transform="matrix(3.323375940322876, 0, 0, 3.323375940322876, 0, -132.4183349609375)" cx="0" cy="0" rx="100" ry="100" style="fill:#9B9A9C;" />
		<g transform="matrix(1.2526895999908447, 0, 0, 1.2526895999908447, 0.000003814697265625, -132.4183349609375)">
			<path transform="matrix(1, 0, 0, 1, -250, -250)" d="" fill-rule="evenodd" style="fill:#0C0C0C;" />
			<path transform="matrix(1, 0, 0, 1, -250, -250)" d="M294,33.75 C291.53,34.55 281.05,45.27 281.7,46.33 C282.04,46.87 281.86,47.03 281.32,46.7 C280.77,46.36 278.63,47.82 276.56,49.94 C271.38,55.24 272.07,57.63 281.45,66.94 C287.88,73.34 288.9,74.85 289.5,78.88 C290.32,84.34 292.18,87.76 295.83,90.5 C298.36,92.39 300.63,92.54 338.5,93.17 C379.6,93.87 382.13,93.98 381.46,95.06 C381.25,95.41 382.1,96.25 383.37,96.93 C388.27,99.55 389.42,103.4 390.05,119.27 C390.56,131.95 390.93,134.44 392.67,136.77 C395.83,141.05 400.87,144 405.01,144 C408.3,144 409.52,144.81 415.61,151.08 C424.39,160.1 427,161.57 430.75,159.62 C432.26,158.83 437.21,154.37 441.75,149.72 C452.88,138.29 452.88,138.2 440.14,125.69 C433.54,119.2 429.53,116 428.02,116 C426.54,116 422.92,118.77 417.56,124 C410.81,130.59 408.8,132 406.2,132 C402.29,132 402.17,131.57 401.75,115 C401.48,104.42 401.09,101.85 399.21,98.28 C396.39,92.92 391.14,87.65 385.72,84.76 C381.58,82.54 380.75,82.49 343.08,82.2 C320.53,82.02 303.91,81.49 302.83,80.91 C299.29,79.01 300.71,75.63 308.07,68.42 C316.43,60.24 318.38,57.08 317.08,53.81 C316.05,51.21 300.58,35.75 297.5,34.25 C296.4,33.71 294.83,33.49 294,33.75M291.52,51.98 L287.59,56 L291.52,60.02 L295.44,64.03 L299.45,60.02 L303.47,56 L299.45,51.98 L295.44,47.97 L291.52,51.98M229.25,74.11 C226.36,75.79 224,77.58 224,78.08 C224,78.59 223.57,78.89 223.04,78.75 C221.79,78.43 189.08,97.31 189.55,98.08 C189.75,98.4 189.31,98.67 188.57,98.67 C186.78,98.67 129.85,131.86 128.25,133.84 C127.56,134.69 127,135.06 127,134.66 C127,134.26 126.09,134.42 124.97,135.01 C123.86,135.61 123.15,136.43 123.4,136.84 C123.66,137.25 123.01,137.65 121.98,137.73 C120.94,137.81 114.67,141.07 108.04,144.98 C97.16,151.39 96.08,152.28 97.02,154.05 C97.6,155.12 98.28,156 98.54,156 C100.11,156 107.9,150.22 107.27,149.53 C106.85,149.06 107.05,149 107.72,149.38 C108.97,150.1 129.41,138.75 128.5,137.84 C128.23,137.56 128.58,137.33 129.28,137.33 C131.11,137.33 162.91,118.66 162.42,117.88 C162.2,117.52 162.58,117.29 163.26,117.36 C165.43,117.6 219.03,85.86 218.34,84.74 C217.98,84.15 218.17,83.99 218.77,84.36 C220.02,85.13 225.15,83.05 224.51,82.02 C224.28,81.64 224.65,81.33 225.33,81.33 C226.71,81.33 235.73,76.25 236.47,75.05 C236.73,74.64 236.39,73.57 235.72,72.68 C234.62,71.22 233.99,71.36 229.25,74.11M181,128.46 C143.88,150.11 112.94,168.33 112.25,168.95 C111.27,169.84 111,187.27 111.02,249.79 C111.02,293.63 111.36,329.98 111.77,330.56 C112.97,332.31 248.65,411 250.46,411 C251.37,411 251.87,410.6 251.57,410.11 C251.27,409.63 251.58,409.29 252.27,409.36 C253.83,409.54 320.93,370.71 320.45,369.92 C320.25,369.6 320.66,369.33 321.36,369.33 C322.91,369.33 387.2,332.06 388.24,330.56 C388.64,329.98 388.97,293.73 388.97,250 C388.97,206.28 388.64,170.02 388.24,169.44 C387.32,168.13 340.83,141.05 339.61,141.12 C339.12,141.15 338.45,140.74 338.11,140.22 C336.74,138.1 292.03,112.86 290.89,113.57 C290.17,114.01 289.95,113.89 290.34,113.26 C291.02,112.16 254.05,90.05 250.5,89.45 C249.25,89.23 223.06,103.94 181,128.46M237.05,107.02 C230.75,110.79 225.24,113.65 224.8,113.38 C224.36,113.1 224,113.31 224,113.84 C224,114.37 200.84,128.23 172.54,144.65 L121.08,174.5 L121.07,250 L121.06,325.5 L139.42,336 C149.52,341.78 157.63,346.76 157.44,347.08 C157.25,347.4 157.63,347.67 158.3,347.67 C159.93,347.67 176,356.98 176,357.92 C176,358.33 176.56,358.67 177.25,358.67 C177.94,358.67 194.42,367.97 213.87,379.34 C233.33,390.7 249.61,400 250.04,400 C250.68,400 260.8,394.4 268,390.05 C282.39,381.36 310.99,365 311.78,365 C312.36,365 312.98,364.63 313.17,364.17 C313.82,362.53 328.05,354.91 329.17,355.6 C329.86,356.03 330.04,355.87 329.62,355.19 C328.81,353.89 336.34,349.71 337.54,350.79 C337.97,351.18 338.07,351.05 337.76,350.5 C337.23,349.58 376.52,326 378.58,326 C379.63,326 379.39,177.4 378.34,175 C377.98,174.18 377.74,173.22 377.8,172.87 C377.87,172.52 377.3,172.3 376.54,172.37 C374.38,172.58 289.16,122.62 289.77,121.5 C290.07,120.95 289.97,120.82 289.54,121.21 C288.34,122.29 280.81,118.11 281.62,116.81 C282.04,116.13 281.86,115.97 281.16,116.4 C280.53,116.79 273.49,113.29 265.39,108.56 C257.35,103.85 250.26,100.04 249.64,100.09 C249.01,100.14 243.35,103.26 237.05,107.02M255.31,111.25 C254.86,111.94 254.05,114.03 253.5,115.89 C252.61,118.91 250.79,120.27 236.85,128.39 C228.24,133.4 221.36,137.76 221.56,138.08 C221.75,138.4 221.32,138.67 220.6,138.67 C218.94,138.67 160,172.98 160,173.95 C160,174.34 159.42,174.67 158.72,174.67 C158.01,174.67 153.62,176.91 148.97,179.65 C142.33,183.55 139.96,184.47 138,183.91 C131.3,182 130.03,182.98 128.47,191.29 C127.86,194.59 128.01,194.85 131.16,195.85 C133,196.44 135.83,197.05 137.44,197.21 C140.16,197.48 140.49,197.14 141.69,192.99 C142.84,188.96 143.63,188.11 149,185.16 C152.54,183.22 154.75,181.41 154.36,180.77 C153.98,180.16 154.16,179.98 154.77,180.36 C156.02,181.13 161.15,179.05 160.51,178.02 C160.28,177.64 160.65,177.33 161.33,177.33 C163.12,177.33 194.9,158.65 194.42,157.88 C194.2,157.52 194.58,157.29 195.26,157.36 C196.95,157.55 251.1,125.97 250.57,125.11 C250.34,124.74 250.9,124.36 251.82,124.27 C252.75,124.18 254.74,123.9 256.25,123.64 C257.76,123.39 259.25,123.59 259.56,124.09 C259.87,124.59 261.2,125 262.51,125 C264.36,125 265.11,124.26 265.81,121.74 C266.3,119.94 266.66,117.18 266.6,115.6 C266.51,113.08 265.93,112.55 262,111.38 C256.44,109.72 256.3,109.71 255.31,111.25M258.19,117.75 C258.38,118.71 259.19,119.5 260,119.5 C260.81,119.5 261.62,118.71 261.81,117.75 C262.05,116.52 261.51,116 260,116 C258.49,116 257.95,116.52 258.19,117.75M424.04,134.46 C422.19,136.37 420.19,137.66 419.59,137.33 C418.99,137 420.63,138.92 423.23,141.59 L427.97,146.44 L431.99,142.51 L436.01,138.59 L432.3,134.8 C430.26,132.71 428.32,131 427.99,131 C427.66,131 425.88,132.56 424.04,134.46M133.71,190 C133.33,191.45 133.68,192 134.99,192 C136.81,192 138.36,189.69 137.26,188.6 C136.03,187.36 134.21,188.07 133.71,190M132.04,204.93 C130.3,208.18 133.19,210 140.07,210 L146,210 L146,259.5 L146,309 L141.75,309.11 C139.41,309.17 136.52,309.14 135.32,309.05 C132.46,308.82 130.61,312.08 132.29,314.37 C133.39,315.88 137.93,316 182.5,315.76 L231.5,315.5 L231.5,305.5 L231.5,295.5 L228.5,295.5 L225.5,295.5 L225.21,302.21 L224.91,308.93 L203.71,309.21 C192.04,309.37 181.26,309.36 179.75,309.18 L177,308.87 L177,291.93 L177,275 L187.95,275 L198.91,275 L199.2,281.65 C199.52,288.63 201.02,290.97 204.39,289.68 C205.86,289.12 206.02,287.1 205.77,271.77 L205.5,254.5 L202.5,254.5 C199.5,254.5 199.5,254.51 199.28,260.89 C199.16,264.4 198.94,267.39 198.78,267.54 C198.3,268 192.85,268.22 184.75,268.11 L177,268 L177,239 L177,210 L201,210 L225,210 L225.11,213.75 C225.34,221.93 225.55,223.11 226.95,223.97 C227.81,224.5 229.12,224.47 230.2,223.9 C231.71,223.08 232,221.6 232,214.55 C232,209.94 231.73,205.45 231.39,204.58 C230.85,203.17 225.56,203 181.93,203 C134.68,203 133.04,203.06 132.04,204.93M246.93,204.58 C244.4,207.63 247.02,209.47 254.35,209.8 L261,210.09 L261,259.55 L261,309 L254.74,309 C249.49,309 248.27,309.33 247.18,311.08 C246.16,312.72 246.14,313.47 247.11,314.63 C248.16,315.89 254.93,316.06 295.41,315.8 L342.5,315.5 L347.82,312.55 C358.13,306.84 363,297.49 363,283.43 C363,278.57 362.61,275.12 362.09,275.44 C361.6,275.75 361.42,275.1 361.71,274 C362.92,269.38 353.25,255.94 347.89,254.78 C344.38,254.03 344.27,252.5 347.47,248.77 C351.58,243.96 353.01,239.09 352.98,229.88 C352.94,218.07 348.46,210.34 338.78,205.41 L334.07,203 L291.16,203 C253.22,203 248.09,203.18 246.93,204.58M299.25,209.74 L292,210.09 L292,230.5 L292,250.91 L298.25,251.2 C307.95,251.66 315.76,248.48 319.96,242.36 C322.74,238.3 323.66,230.18 322.03,224.12 C320.2,217.31 313.44,211 307.99,211 C306.83,211 306.16,210.55 306.5,210 C306.84,209.45 306.98,209.09 306.81,209.2 C306.64,209.31 303.24,209.55 299.25,209.74M326.83,209.72 L323.15,210.11 L326.33,215.22 C329.06,219.62 329.55,221.43 329.86,228.31 C330.27,237.29 328.97,242.96 325.41,247.67 C322.56,251.45 323.51,252.07 329.99,250.7 C336.91,249.24 341.88,245.25 344.63,238.95 C346.2,235.33 345.63,224.12 343.67,220.33 C341.53,216.19 335.16,211 332.21,211 C330.91,211 330.16,210.56 330.5,210 C330.84,209.45 330.98,209.08 330.81,209.17 C330.64,209.26 328.85,209.51 326.83,209.72M154,239 L154,268 L156.75,268.13 C159.98,268.29 168.41,267.93 168.71,267.62 C168.92,267.42 169.12,237.81 169.04,219.25 L169,210 L161.5,210 L154,210 L154,239M269,230.5 C269,246.17 269.29,251.03 270.25,251.11 C270.94,251.17 274.2,251.23 277.5,251.25 L283.5,251.27 L283.77,230.64 L284.04,210 L276.52,210 L269,210 L269,230.5M332.74,257.78 C331.2,258.1 331.37,258.68 334.04,262.4 C338.1,268.06 340,274.78 340,283.5 C340,292.26 338.1,298.94 333.98,304.67 L330.88,309 L333.69,308.96 C341.35,308.84 350.21,303.05 353.25,296.17 C354.82,292.61 355.23,289.74 355.09,283.06 C354.88,273.3 352.64,267.28 347.92,263.79 C346.36,262.63 345.36,261.23 345.69,260.69 C346.03,260.14 345.86,259.97 345.3,260.31 C344.75,260.65 342.09,260.14 339.4,259.18 C336.7,258.21 333.71,257.58 332.74,257.78M269,283.5 L269,309 L276.5,309 L284,309 L284,283.5 L284,258 L276.5,258 L269,258 L269,283.5M292,283.4 L292,309 L298.75,309.1 C305.3,309.19 310.39,309.02 314.5,308.58 C317.9,308.21 324.62,304.24 327.35,301 C331.11,296.52 332.26,291.53 331.86,281.35 C331.55,273.56 331.13,271.79 328.77,268.23 C327.27,265.96 323.9,262.85 321.27,261.31 C316.87,258.72 315.54,258.47 304.25,258.15 L292,257.79 L292,283.4M154,292 C154,310.55 153.58,309.25 159.5,309.25 C160.33,309.25 162.8,309.19 165,309.13 L169,309 L169,292 L169,275 L161.5,275 L154,275 L154,292M360.61,303.53 C359.86,304.28 358.96,306.39 358.62,308.2 C358.07,311.09 356.92,312.11 349.48,316.32 C344.41,319.2 341.24,321.58 341.64,322.23 C342.05,322.88 341.84,323.02 341.12,322.58 C340,321.88 302.25,343.14 300.89,345.23 C300.55,345.75 299.88,346.25 299.39,346.34 C298.9,346.43 298.62,346.87 298.78,347.32 C298.93,347.78 298.6,347.87 298.04,347.53 C297.49,347.19 285.44,353.65 271.27,361.9 L245.5,376.89 L241.28,375.75 C236.97,374.58 236.06,374.8 235.58,377.16 C235.43,377.9 235,379.19 234.63,380.04 C234.26,380.88 233.85,382.87 233.73,384.46 C233.51,387.18 233.84,387.44 238.86,388.72 C243.78,389.98 244.32,389.94 245.53,388.3 C246.25,387.31 247.09,385.27 247.39,383.78 C247.8,381.76 249.39,380.23 253.47,377.93 C256.62,376.15 258.72,374.35 258.35,373.75 C257.98,373.16 258.16,372.98 258.76,373.35 C260.05,374.15 263.17,373.08 262.54,372.06 C262.29,371.66 262.68,371.33 263.4,371.33 C265.42,371.33 334.86,330.6 334.32,329.73 C334.06,329.3 334.22,329.05 334.68,329.17 C336.09,329.56 340,327.91 340,326.93 C340,326.42 340.34,326.1 340.75,326.22 C342.31,326.68 354.99,318.79 354.35,317.76 C353.98,317.16 354.16,316.98 354.76,317.35 C356.1,318.18 359.16,317.06 358.49,315.99 C358.22,315.54 360.51,315.76 363.59,316.48 L369.19,317.78 L370.46,314.64 C373.89,306.17 373.54,305.32 365.74,303.19 C362.82,302.39 361.68,302.46 360.61,303.53M363.5,309 C362.66,310.35 363.79,312 365.56,312 C366.35,312 367,311.1 367,310 C367,307.93 364.59,307.24 363.5,309M84.38,355.22 C76.91,362.57 74,366.11 74,367.84 C74,369.49 76.47,372.78 81.91,378.37 C89.05,385.7 89.9,386.99 90.56,391.5 C91.13,395.44 92.11,397.32 95.14,400.36 C97.6,402.83 99.55,404 100.54,403.62 C101.4,403.29 101.84,403.44 101.53,403.96 C101.17,404.53 115.33,404.9 137.98,404.93 C158.35,404.95 176.24,405.26 177.75,405.61 C181.5,406.5 186.77,410.57 189.08,414.37 C190.65,416.93 191,419.49 191.04,428.5 C191.1,443.16 192.05,447.6 195.85,451.15 C199.47,454.54 202.94,456 207.34,456 C210.02,456 211.85,457.32 218.5,464 C224.28,469.82 227.15,472 229,472 C232.58,472 251,453.56 251,449.96 C251,446.57 232.53,428 229.16,428 C226.48,428 216.73,436.75 217.68,438.29 C218.03,438.85 217.88,439.04 217.35,438.71 C216.82,438.39 215.13,439.44 213.61,441.06 C210.64,444.2 206.08,445.01 204.18,442.72 C203.6,442.02 202.95,435.83 202.75,428.97 C202.33,414.9 202.05,413.46 198.63,407.65 C195.3,401.99 192.54,399.6 185.5,396.31 L179.5,393.5 L141.52,393.18 C113.65,392.95 103.34,392.55 102.78,391.68 C100.91,388.74 102.4,386.07 110.5,377.82 C115.18,373.06 119,368.45 119,367.58 C119,365.4 112.02,357.87 110.74,358.66 C110.16,359.02 109.98,358.85 110.32,358.29 C111.15,356.95 98.68,345 96.46,345 C95.52,345 90.09,349.6 84.38,355.22M91.7,363.79 L88,367.58 L92.34,371.84 C96.13,375.56 96.84,375.9 97.95,374.56 C98.65,373.71 99.74,373.31 100.36,373.67 C100.99,374.03 101.16,373.94 100.74,373.49 C100.32,373.03 100.97,371.6 102.18,370.31 L104.38,367.97 L100.49,363.99 C98.35,361.79 96.33,360 96,360 C95.67,360 93.74,361.71 91.7,363.79M239,381.99 C239,382.98 239.68,384.05 240.5,384.36 C241.33,384.68 242,384.76 242,384.55 C242,384.34 242.25,383.51 242.56,382.71 C242.9,381.81 242.34,381.06 241.06,380.73 C239.54,380.33 239,380.66 239,381.99M224.5,446 L220.59,450 L224.5,454 C226.65,456.2 228.88,457.96 229.45,457.92 C230.03,457.87 232.03,456.05 233.91,453.87 L237.32,449.91 L233.46,445.95 C231.33,443.78 229.33,442 229,442 C228.67,442 226.65,443.8 224.5,446" fill-rule="evenodd" style="fill:#040404;" />
		</g>
	</g>
</svg>